<?xml version="1.0" standalone="no"?>
<!DOCTYPE svg PUBLIC "-//W3C//DTD SVG 20010904//EN"
 "http://www.w3.org/TR/2001/REC-SVG-20010904/DTD/svg10.dtd">
<svg version="1.0" xmlns="http://www.w3.org/2000/svg"
 width="1172.000000pt" height="240.000000pt" viewBox="0 0 1172.000000 240.000000"
 preserveAspectRatio="xMidYMid meet">

<g transform="translate(0.000000,240.000000) scale(0.100000,-0.100000)"
fill="#000000" stroke="none">
<path d="M8897 2324 c-4 -4 -7 -376 -7 -826 l0 -819 98 3 97 3 3 396 2 397 83
41 c170 86 330 90 402 11 19 -21 20 -38 23 -436 l3 -414 94 0 95 0 0 423 c0
355 -2 431 -15 468 -27 76 -98 139 -186 165 -63 19 -189 21 -262 3 -53 -12
-151 -57 -199 -90 -14 -11 -29 -19 -32 -19 -3 0 -7 156 -8 348 l-3 347 -90 3
c-50 1 -94 0 -98 -4z"/>
<path d="M11045 2276 c-116 -29 -224 -101 -283 -192 -32 -48 -62 -155 -62
-221 0 -100 57 -222 139 -296 52 -47 80 -64 302 -187 224 -125 255 -148 287
-218 47 -103 17 -210 -75 -274 -132 -90 -370 -87 -619 9 -13 5 -69 -130 -61
-150 6 -15 146 -60 242 -78 104 -20 325 -17 405 5 95 26 174 72 232 135 60 66
82 111 99 204 10 52 10 81 1 129 -29 155 -118 253 -342 375 -245 133 -305 171
-341 212 -84 95 -79 214 14 309 59 60 128 84 244 83 88 -1 198 -18 257 -41 16
-6 31 -8 34 -5 4 3 18 39 33 80 l27 74 -31 10 c-18 6 -72 20 -120 31 -102 23
-299 26 -382 6z"/>
<path d="M70 1475 l0 -796 96 3 96 3 2 320 1 320 119 3 c84 2 123 -1 133 -10
26 -21 111 -152 259 -398 l141 -235 117 -3 c64 -1 116 0 116 4 0 18 -288 475
-364 579 -29 39 -55 76 -60 82 -5 9 11 21 50 40 129 61 225 190 246 330 37
253 -98 453 -357 529 -48 14 -112 18 -327 21 l-268 5 0 -797z m585 587 c65
-30 109 -73 135 -134 55 -129 26 -281 -70 -362 -61 -51 -93 -59 -274 -65 -92
-3 -171 -4 -176 -1 -8 5 -11 570 -3 583 3 5 80 7 172 5 148 -3 172 -6 216 -26z"/>
<path d="M8300 2053 c-14 -9 -49 -39 -77 -67 l-53 -49 0 -104 0 -103 -75 0
-76 0 3 -72 3 -73 70 -5 70 -5 5 -370 5 -370 28 -48 c56 -95 164 -144 292
-134 77 7 195 43 195 60 0 35 -24 137 -32 137 -5 0 -35 -7 -65 -16 -35 -10
-79 -15 -119 -12 -54 3 -67 8 -88 32 -13 16 -27 42 -30 59 -3 16 -6 173 -6
348 l0 319 150 0 150 0 0 75 0 75 -150 0 -150 0 0 170 c0 183 -1 187 -50 153z"/>
<path d="M1685 1754 c-155 -19 -279 -59 -363 -120 -3 -2 55 -123 63 -132 2 -2
21 6 43 17 93 47 148 63 242 68 85 5 101 3 138 -16 60 -31 82 -79 82 -179 0
-92 5 -88 -110 -91 -257 -7 -451 -93 -513 -229 -31 -67 -31 -210 0 -268 61
-114 214 -177 354 -144 73 17 187 72 239 115 24 20 46 32 50 28 4 -4 18 -34
30 -65 l24 -58 63 0 64 0 -3 428 c-3 426 -3 427 -27 475 -32 65 -95 118 -172
144 -65 22 -150 33 -204 27z m205 -701 l0 -118 -48 -32 c-101 -69 -215 -101
-293 -84 -61 14 -109 66 -109 120 0 56 13 84 60 130 64 62 179 96 333 100 l57
1 0 -117z"/>
<path d="M2900 1749 c-89 -13 -197 -60 -286 -124 -19 -14 -22 -12 -49 45 l-29
61 -61 -3 -60 -3 0 -520 0 -520 98 -3 97 -3 0 396 0 395 43 27 c67 42 152 73
235 84 96 14 152 1 199 -46 l33 -33 0 -411 0 -411 95 0 95 0 0 433 0 433 -26
52 c-58 116 -212 177 -384 151z"/>
<path d="M5037 1750 c-90 -11 -199 -44 -267 -82 -30 -17 -56 -32 -58 -33 -3
-2 54 -123 62 -132 1 -1 45 16 97 39 91 41 97 42 205 42 105 1 112 0 146 -26
45 -35 62 -81 62 -178 l1 -75 -130 -7 c-219 -11 -357 -59 -446 -156 -61 -67
-84 -135 -77 -233 17 -226 267 -325 513 -201 49 24 127 79 133 94 9 20 25 2
52 -57 l29 -65 61 0 60 0 0 406 c0 254 -4 421 -11 447 -40 158 -210 243 -432
217z m251 -692 c3 -105 3 -106 -25 -132 -67 -62 -233 -124 -299 -111 -11 2
-27 4 -37 4 -9 1 -34 16 -55 35 -35 32 -37 38 -37 93 1 51 5 64 33 99 18 22
49 50 70 61 67 38 185 62 287 59 l60 -1 3 -107z"/>
<path d="M6305 1750 c-98 -11 -217 -59 -282 -114 -17 -14 -33 -26 -36 -26 -2
0 -16 27 -31 60 l-28 61 -61 -3 -62 -3 0 -520 0 -520 97 -3 98 -3 2 398 3 397
54 32 c166 100 395 105 439 9 9 -19 12 -138 12 -431 l0 -405 98 3 97 3 0 425
0 425 -29 58 c-58 119 -195 177 -371 157z"/>
<path d="M7355 1749 c-45 -4 -109 -17 -144 -29 -81 -27 -181 -77 -181 -90 0
-24 62 -131 73 -126 7 2 50 22 97 43 81 36 90 38 192 38 92 0 110 -3 134 -21
59 -44 69 -68 69 -167 l0 -92 -120 -6 c-132 -8 -190 -18 -279 -49 -166 -57
-250 -161 -250 -309 1 -54 6 -89 21 -121 57 -128 217 -196 371 -156 78 20 173
66 228 112 23 19 44 34 47 34 3 0 17 -29 33 -65 l27 -66 61 3 61 3 3 326 c5
500 -10 592 -106 666 -84 64 -190 86 -337 72z m245 -694 l0 -115 -41 -30
c-100 -72 -232 -111 -308 -90 -22 6 -53 23 -70 39 -27 25 -31 36 -31 81 0 58
15 93 57 131 63 59 185 94 336 98 l57 1 0 -115z"/>
<path d="M3851 1735 c-137 -32 -238 -127 -277 -260 -13 -45 -15 -81 -11 -151
8 -135 53 -226 140 -281 23 -15 44 -28 46 -30 2 -1 -16 -32 -39 -69 -51 -80
-90 -162 -90 -187 0 -11 14 -32 31 -48 l31 -29 -62 -67 c-76 -81 -110 -149
-110 -220 0 -65 13 -99 53 -141 75 -78 224 -124 402 -124 182 0 311 38 422
123 122 95 151 269 60 366 -59 63 -152 97 -427 158 -90 20 -173 41 -182 46
-24 13 -23 27 8 98 l27 61 96 0 c53 0 115 5 139 10 106 25 192 92 248 193 26
47 29 63 32 162 3 93 1 119 -17 170 -12 33 -23 65 -24 70 -1 6 32 11 81 13
l82 3 0 76 0 76 -46 -7 c-178 -24 -275 -29 -326 -17 -84 20 -215 22 -287 6z
m206 -127 c63 -15 117 -71 137 -139 23 -75 21 -180 -4 -228 -52 -103 -112
-135 -238 -130 -68 4 -83 8 -116 33 -59 45 -91 122 -91 221 0 70 4 87 29 133
57 103 158 142 283 110z m-61 -993 c217 -49 278 -70 309 -106 30 -36 31 -63 6
-105 -27 -44 -78 -80 -147 -105 -46 -17 -84 -22 -179 -23 -147 -1 -202 13
-258 65 -38 37 -39 41 -35 88 3 27 13 65 24 85 24 47 96 135 110 136 6 0 82
-16 170 -35z"/>
</g>
</svg>
